<?xml version="1.0" encoding="UTF-8" standalone="no"?>
<!-- Created with Inkscape (http://www.inkscape.org/) -->

<svg
   width="512mm"
   height="512mm"
   viewBox="0 0 512 512"
   version="1.1"
   id="svg1"
   xml:space="preserve"
   xmlns="http://www.w3.org/2000/svg"
   xmlns:svg="http://www.w3.org/2000/svg"
   xmlns:rdf="http://www.w3.org/1999/02/22-rdf-syntax-ns#"
   xmlns:cc="http://creativecommons.org/ns#"
   xmlns:dc="http://purl.org/dc/elements/1.1/"><title
     id="title1">EndeavorOS Icon</title><defs
     id="defs1" /><g
     id="main"><path
       id="path1-9"
       style="display:inline;fill:#ffffff;fill-opacity:0.797857;stroke-width:0.265;stroke-dasharray:none"
       d="M 298.99984,41.880131 C 287.79825,41.985625 0.05333173,389.84942 0.06201172,392.9264 17.801295,397.75528 40.774219,401.97616 66.403699,405.6848 c -20.251056,33.36576 -34.117,56.4928 -36.40398,60.31518 180.661021,7.04373 324.797721,-5.35979 395.050301,-14.0472 70.25256,-8.68742 200.19455,-69.43314 -126.05018,-410.072649 z" /><path
       style="display:inline;fill:#ff0000;fill-opacity:0.5;stroke-width:0.264583"
       d="M 299,41.88 C 287.7984,41.985494 0.05357947,389.8495 0.06225903,392.92649 80.441209,414.80674 264.77755,424.86832 345,426 425.22245,427.13168 564.78329,390.35823 299,41.88 Z"
       id="path1" /><path
       style="display:inline;fill:#0000ff;fill-opacity:0.5;stroke-width:0.264583"
       d="M 299,41.88 C 209.04637,166.95704 38.694615,451.46813 30,466 210.6612,473.04374 354.79776,460.64041 425.0504,451.95299 495.30304,443.26557 625.24506,382.51985 299,41.88 Z"
       id="path2" /></g><metadata
     id="metadata1"><rdf:RDF><cc:Work
         rdf:about=""><dc:title>EndeavorOS Icon</dc:title><cc:license
           rdf:resource="http://creativecommons.org/licenses/by/4.0/" /></cc:Work><cc:License
         rdf:about="http://creativecommons.org/licenses/by/4.0/"><cc:permits
           rdf:resource="http://creativecommons.org/ns#Reproduction" /><cc:permits
           rdf:resource="http://creativecommons.org/ns#Distribution" /><cc:requires
           rdf:resource="http://creativecommons.org/ns#Notice" /><cc:requires
           rdf:resource="http://creativecommons.org/ns#Attribution" /><cc:permits
           rdf:resource="http://creativecommons.org/ns#DerivativeWorks" /></cc:License></rdf:RDF></metadata></svg>
