<?xml version="1.0" encoding="UTF-8" standalone="no"?>
<!-- Created with Inkscape (http://www.inkscape.org/) -->

<svg
   width="500mm"
   height="500mm"
   viewBox="0 0 500 500"
   version="1.1"
   id="svg1"
   xml:space="preserve"
   xmlns="http://www.w3.org/2000/svg"
   xmlns:svg="http://www.w3.org/2000/svg"
   xmlns:rdf="http://www.w3.org/1999/02/22-rdf-syntax-ns#"
   xmlns:cc="http://creativecommons.org/ns#"
   xmlns:dc="http://purl.org/dc/elements/1.1/"><title
     id="title1">EndeavorOS Logo dark</title><defs
     id="defs1" /><g
     id="main"><g
       id="g1"
       transform="matrix(1.0355818,0,0,0.94227725,-15.170226,-54.905802)"
       style="display:inline"><path
         style="display:inline;fill:#8080ff;fill-opacity:0.996078;fill-rule:nonzero;stroke:none;stroke-width:2.93816"
         d="m 424.701,500.24005 c -6.12885,0 -11.08703,4.94658 -11.08703,10.99506 v 58.22376 c 0.12598,5.93376 5.05004,10.85748 11.08703,10.85748 h 6.00254 c 5.87635,-0.2408 10.58191,-4.95817 10.69673,-10.85748 v -58.22376 c 0,-5.93365 -4.8089,-10.74255 -10.69673,-10.99506 z m 44.08379,0 c -6.20912,0 -11.08692,5.38282 -11.08692,11.43129 v 7.71257 c 0,0 -0.30992,5.55505 3.62675,12.7742 l 9.29651,17.44531 0.0111,0.0223 c 0,0 0.79152,1.38873 1.60679,3.32841 0.80379,1.9282 1.57235,4.40723 1.57235,6.2895 v 8.6653 c 0,1.68706 -1.21661,2.86922 -2.76599,2.86922 -1.5379,0 -2.75451,-1.21649 -2.75451,-2.7545 v -15.31054 c -2.05883,0.91797 -3.94288,1.7587 -5.24513,2.34157 -1.10144,0.48161 -2.15763,0.91862 -2.26097,0.95206 l -0.12598,0.0446 -0.10033,0.0557 c -1.29699,0.72352 -2.85785,2.47914 -2.85785,5.40577 v 7.839 c 0.11483,5.89919 4.80901,10.71969 10.70821,10.96071 h 4.91225 c 6.12885,0 11.08703,-4.94669 11.08703,-10.99516 v -9.5605 c 0,0 0.30992,-5.55494 -3.62686,-12.76261 l -9.30799,-17.56014 -0.0112,-0.0223 c 0,0 -0.79152,-1.36577 -1.59542,-3.27089 -0.80379,-1.90523 -1.57235,-4.34993 -1.57235,-6.23219 v -7.26508 c 0,-1.68706 1.21661,-2.86922 2.7545,-2.86922 1.5495,0 2.76599,1.18216 2.76599,2.86922 v 10.82304 c 2.59395,-1.10952 5.1956,-2.21613 7.73432,-3.46539 1.30836,-0.72352 2.85785,-2.47903 2.85785,-5.40578 v -2.92663 c 0,-5.93365 -4.72863,-11.30498 -10.73118,-11.43129 z m -41.85726,9.53754 h 1.12474 c 1.54949,0 2.76599,1.18216 2.76599,2.86922 v 55.26268 c 0,1.68717 -1.2165,2.86933 -2.76599,2.86933 h -1.12474 c -1.57235,-0.0669 -2.8234,-1.31995 -2.8234,-2.86933 v -55.26268 c 0,-1.54938 1.25105,-2.80044 2.8234,-2.86922 z"
         id="text_os" /><path
         style="fill:#d7f4f4;fill-opacity:1;fill-rule:nonzero;stroke:none;stroke-width:2.93816"
         d="m 295.60559,500.24005 c -6.12885,0 -11.08692,4.94658 -11.08692,10.99506 v 58.22376 c 0.12598,5.93376 5.04993,10.85748 11.08692,10.85748 h 6.00254 c 5.87635,-0.2408 10.58201,-4.95817 10.70821,-10.85748 v -58.22376 c 0,-5.93365 -4.8089,-10.74255 -10.70821,-10.99506 z m -162.7235,0.75697 h -16.38946 v 78.56137 h 16.38946 c 6.01403,0 10.85737,-4.84335 10.9722,-10.85738 V 511.8545 c -0.11483,-6.01402 -4.95817,-10.85748 -10.9722,-10.85748 z m 56.78909,0 h -22.33459 c -1.97413,0 -3.55795,1.53801 -3.73008,3.39731 v 75.16406 h 18.65043 c 3.94111,0 5.31418,-2.57153 5.42797,-2.79911 0.4359,-0.87179 1.66421,-3.76454 2.5136,-5.69273 l 0.84949,-1.90513 h -16.95179 v -24.97437 c 0,-0.18394 0.30992,-0.49386 0.48161,-0.49386 h 3.24803 c 3.82457,0 5.20055,-2.58519 5.31325,-2.81059 1.13449,-2.55963 2.23562,-5.13764 3.36365,-7.7012 h -12.40687 v -21.18688 c 0,-0.44705 0.0334,-0.49387 0.4816,-0.49387 h 6.27802 c 2.90367,0 4.69418,-1.50345 5.33688,-2.9496 z m -152.944927,0 c -1.97413,0 -3.55796,1.54949 -3.73009,3.39731 v 75.16406 h 18.65043 c 2.88071,0 4.65974,-1.4117 5.39419,-2.75451 l 0.0223,-0.0223 0.0112,-0.0223 c 0.42475,-0.87179 1.65273,-3.76454 2.51348,-5.69273 l 0.8495,-1.90524 h -16.96332 v -24.97426 c 0,-0.17168 0.32107,-0.49386 0.49386,-0.49386 h 3.23656 c 2.88081,0 4.59095,-1.4806 5.30243,-2.75451 l 0.0111,-0.0223 0.0111,-0.0334 c 0.22965,-0.45931 0.59643,-1.34281 1.06688,-2.45607 0.48161,-1.11371 1.02118,-2.3758 1.44615,-3.3399 l 0.83835,-1.90523 H 43.473503 V 511.9949 c 0,-0.44704 0.0446,-0.49387 0.49387,-0.49387 h 6.26653 c 2.91515,0 4.69419,-1.50345 5.33688,-2.9496 h 0.0111 l 3.47758,-7.55203 z m 36.13008,0 v 78.56137 h 10.49026 v -31.42453 l 5.65818,25.49088 c 0.16053,0.73467 0.4136,2.16911 1.3544,3.50043 0.92976,1.31995 2.6856,2.43322 5.15315,2.43322 h 4.912247 V 500.99702 H 89.934423 v 31.55083 l -5.31392,-26.2368 c -0.22965,-1.14772 -0.58528,-2.52508 -1.67569,-3.61538 -1.0903,-1.10144 -2.78895,-1.69865 -5.16464,-1.69865 z m 137.508197,0 c -3.9492,26.18828 -7.91018,52.37446 -11.86696,78.56137 h 11.2935 l 5.62384,-43.13129 5.63532,43.13129 h 11.30497 l -11.16729,-73.29328 v -0.0111 c -0.17169,-1.068 -0.37904,-2.31839 -1.2165,-3.43165 -0.82608,-1.10145 -2.31839,-1.82497 -4.22362,-1.82497 z m 28.3028,0 c 3.68717,24.0365 7.36868,48.07405 11.05225,72.11122 v 0.0111 c 0.0446,0.2408 0.25195,1.81337 1.04459,3.31682 0.80378,1.50356 2.45606,3.12184 4.93521,3.12184 h 5.06141 l 11.98212,-78.56137 h -10.52449 l -6.51904,42.8673 -5.89931,-38.80432 -0.0111,-0.0111 c -0.50502,-2.91515 -2.34135,-4.05149 -3.60389,-4.05149 z m 93.12587,0 c -1.9282,0 -3.44325,1.54949 -3.61538,3.39731 v 64.92641 c 0,6.04848 4.99263,10.67377 10.97221,10.67377 h 7.29952 c 6.04476,-0.13779 9.29651,-5.1133 9.29651,-10.67377 v -68.32372 h -10.49015 v 66.91202 c 0,1.54938 -1.2166,2.76599 -2.7545,2.76599 h -1.19364 c -1.53801,0 -2.65128,-1.17068 -2.65128,-2.76599 v -66.91202 z m 40.3537,0 v 78.56137 h 10.47867 v -32.61817 h 2.7661 c 0.76922,0 1.36577,0.20624 1.80188,0.6544 0.44705,0.44705 0.8495,1.26254 0.8495,2.86933 v 29.09466 H 398.5332 V 549.2129 c 0,0 0.0557,-1.54938 -0.29877,-3.32831 -0.26421,-1.26253 -0.92976,-2.6283 -1.95105,-3.77601 0.29877,-0.28651 0.78037,-0.4136 0.98662,-0.74582 0.55072,-0.88406 0.82608,-1.83634 0.99888,-2.73154 0.35563,-1.79052 0.25195,-3.4088 0.25195,-3.4088 V 511.8894 c 0,-6.04848 -4.9467,-10.89194 -10.86886,-10.89194 z m -74.31468,8.78012 h 1.12475 c 1.54938,0 2.76599,1.18216 2.76599,2.86922 v 55.26268 c 0,1.68717 -1.22809,2.86933 -2.76599,2.86933 h -1.12475 c -1.57245,-0.0669 -2.8234,-1.31995 -2.8234,-2.86933 v -55.26268 c 0,-1.54938 1.25095,-2.80043 2.8234,-2.86922 z m 84.79335,1.18216 h 2.7661 c 0.79152,0 1.469,0.21851 1.90512,0.58528 0.42475,0.36678 0.74581,0.87179 0.74581,1.97413 v 20.36046 c 0,1.4806 -0.36677,2.10033 -0.76922,2.45618 -0.40134,0.35563 -1.04459,0.52731 -1.88216,0.52731 h -2.7661 z m -255.64279,0.55072 h 3.74157 c 0.8495,0 1.56086,0.21851 2.00847,0.58529 0.43589,0.36677 0.74581,0.86064 0.74581,1.96253 v 52.43928 c 0,1.17067 -0.32107,1.69865 -0.75696,2.06588 -0.44705,0.37904 -1.14771,0.59643 -1.99699,0.59643 h -3.74157 z"
         id="text_endeavour" /></g><g
       id="logo"
       transform="matrix(0.9621625,0,0,0.9160427,10.391998,-32.980622)"
       style="display:inline"><path
         id="path1-9"
         style="display:inline;fill:#ffffff;fill-opacity:0.797857;stroke-width:0.258009;stroke-dasharray:none"
         d="M 290.23701,41.880128 C 279.36377,41.983149 0.05358616,381.69405 0.06201171,384.69891 17.281299,389.41462 39.580813,393.53657 64.45901,397.15829 44.801578,429.74206 31.342089,452.32707 29.122148,456.05986 204.48741,462.93851 344.399,450.82569 412.59225,442.34189 480.78548,433.85808 606.91845,374.53606 290.23701,41.880128 Z" /><path
         style="display:inline;fill:#ff0000;fill-opacity:0.5;stroke-width:0.257603"
         d="M 290.23716,41.88 C 279.36392,41.983022 0.05382664,381.69412 0.06225177,384.699 78.085035,406.06644 257.01788,415.89221 334.88875,416.99736 412.75963,418.10252 548.22949,382.19093 290.23716,41.88 Z"
         id="path1" /><path
         style="display:inline;fill:#0000ff;fill-opacity:0.5;stroke-width:0.257603"
         d="M 290.23716,41.88 C 202.92036,164.0256 37.562169,441.8686 29.122421,456.05988 204.48786,462.93854 344.39931,450.82591 412.59262,442.34209 480.78593,433.85828 606.91893,374.53626 290.23716,41.88 Z"
         id="path2" /></g></g><metadata
     id="metadata1"><rdf:RDF><cc:Work
         rdf:about=""><dc:title>EndeavorOS Logo dark</dc:title><cc:license
           rdf:resource="http://creativecommons.org/licenses/by/4.0/" /></cc:Work><cc:License
         rdf:about="http://creativecommons.org/licenses/by/4.0/"><cc:permits
           rdf:resource="http://creativecommons.org/ns#Reproduction" /><cc:permits
           rdf:resource="http://creativecommons.org/ns#Distribution" /><cc:requires
           rdf:resource="http://creativecommons.org/ns#Notice" /><cc:requires
           rdf:resource="http://creativecommons.org/ns#Attribution" /><cc:permits
           rdf:resource="http://creativecommons.org/ns#DerivativeWorks" /></cc:License></rdf:RDF></metadata></svg>
